<svg width="12" height="12" viewBox="0 0 12 12" fill="none" xmlns="http://www.w3.org/2000/svg">
<path d="M11.5216 6.18359L12.1951 5.0195C12.2761 4.87944 12.2981 4.71297 12.2563 4.55669C12.2146 4.4004 12.1124 4.2671 11.9724 4.18609L10.8071 3.51253V2.1703C10.8071 2.00848 10.7428 1.8533 10.6284 1.73888C10.514 1.62447 10.3588 1.56019 10.197 1.56019H8.85538L8.18243 0.395491C8.10116 0.255725 7.96811 0.153587 7.8121 0.111181C7.73471 0.0902027 7.65393 0.0847935 7.57444 0.0952664C7.49495 0.105739 7.41833 0.131886 7.34902 0.172192L6.18372 0.845751L5.01841 0.171581C4.87828 0.0906797 4.71176 0.0687557 4.55546 0.110632C4.39917 0.152509 4.26591 0.254756 4.185 0.394881L3.51145 1.56019H2.16982C2.00801 1.56019 1.85282 1.62447 1.73841 1.73888C1.62399 1.8533 1.55971 2.00848 1.55971 2.1703V3.51192L0.394404 4.18548C0.324871 4.22548 0.263926 4.27882 0.215071 4.34244C0.166216 4.40606 0.130414 4.47871 0.109721 4.55621C0.0890274 4.63371 0.0838516 4.71453 0.0944904 4.79404C0.105129 4.87355 0.131373 4.95017 0.171714 5.0195L0.845273 6.18359L0.171714 7.34767C0.091173 7.48786 0.0693209 7.6542 0.110922 7.81043C0.152523 7.96667 0.254203 8.10012 0.393793 8.18169L1.5591 8.85525V10.1969C1.5591 10.3587 1.62338 10.5139 1.7378 10.6283C1.85221 10.7427 2.0074 10.807 2.16921 10.807H3.51145L4.185 11.9723C4.23902 12.0646 4.31614 12.1413 4.40878 12.1948C4.50142 12.2483 4.60639 12.2767 4.71336 12.2773C4.81952 12.2773 4.92507 12.2493 5.01902 12.195L6.18311 11.5214L7.34841 12.195C7.48851 12.2758 7.65492 12.2977 7.81116 12.2559C7.9674 12.2142 8.1007 12.1122 8.18182 11.9723L8.85477 10.807H10.1964C10.3582 10.807 10.5134 10.7427 10.6278 10.6283C10.7422 10.5139 10.8065 10.3587 10.8065 10.1969V8.85525L11.9718 8.18169C12.0412 8.14158 12.1021 8.08818 12.1508 8.02454C12.1996 7.96091 12.2353 7.88829 12.256 7.81083C12.2767 7.73338 12.2819 7.6526 12.2713 7.57313C12.2608 7.49366 12.2347 7.41705 12.1945 7.34767L11.5216 6.18359ZM4.65784 3.12694C4.90063 3.12703 5.13346 3.22355 5.30508 3.39529C5.47671 3.56703 5.57308 3.79992 5.573 4.04272C5.57292 4.28551 5.47639 4.51833 5.30465 4.68996C5.13291 4.86159 4.90002 4.95796 4.65723 4.95788C4.41443 4.9578 4.18161 4.86127 4.00998 4.68953C3.83836 4.51779 3.74199 4.2849 3.74207 4.04211C3.74215 3.79931 3.83867 3.56649 4.01042 3.39486C4.18216 3.22324 4.41504 3.12686 4.65784 3.12694ZM4.84087 8.98398L3.8647 8.25246L7.52535 3.3716L8.50152 4.10312L4.84087 8.98398ZM7.70838 9.22802C7.58816 9.22798 7.46912 9.20426 7.35807 9.15822C7.24701 9.11218 7.14611 9.04471 7.06113 8.95967C6.97615 8.87464 6.90875 8.77369 6.86278 8.66261C6.81682 8.55152 6.79318 8.43247 6.79322 8.31225C6.79326 8.19203 6.81697 8.073 6.86302 7.96194C6.90906 7.85089 6.97653 7.74999 7.06157 7.66501C7.1466 7.58003 7.24755 7.51263 7.35863 7.46666C7.46972 7.42069 7.58877 7.39705 7.70899 7.39709C7.95178 7.39717 8.18461 7.4937 8.35623 7.66544C8.52786 7.83718 8.62423 8.07007 8.62415 8.31286C8.62407 8.55566 8.52754 8.78848 8.3558 8.9601C8.18406 9.13173 7.95117 9.2281 7.70838 9.22802Z" fill="#27C24C"/>
</svg>
